<svg viewBox="0 0 128 128" fill="none" xmlns="http://www.w3.org/2000/svg">
<path d="M78.4994 116C78.4867 116.044 74.9794 128 63.9994 128C52.9997 128 49.4994 116 49.4994 116H78.4994ZM64.0004 14.5C98.5004 14.5001 103.499 46.4998 104.499 52C105.499 57.5 103.999 86.9997 104.499 90.5C104.999 94 111.999 100 112.999 105C113.999 110 111.499 112 108.499 112H19.5004C16.5006 112 13.999 110 14.9994 105C15.9998 100 23 94 23.5004 90.5C24.0008 87 22.5006 57.5 23.5004 52C24.5001 46.4999 29.5002 14.5 64.0004 14.5ZM63.9994 0C73.747 0 72.9994 12 72.9994 12C72.9582 11.9864 69.9579 11 63.9994 11C57.9997 11.0001 54.9994 12 54.9994 12C54.9981 11.9789 54.2609 0.000393362 63.9994 0Z" />
</svg>
