<svg width="current" height="current" viewBox="0 0 128 128" fill="none" xmlns="http://www.w3.org/2000/svg">
<g clip-path="url(#clip0_364_84)">
<path fill-rule="evenodd" clip-rule="evenodd" d="M128 64C128 99.3462 99.3462 128 64 128C28.6538 128 0 99.3462 0 64C0 28.6538 28.6538 0 64 0C99.3462 0 128 28.6538 128 64ZM108 64C108 88.3005 88.3005 108 64 108C55.4719 108 47.5104 105.574 40.7682 101.374L101.374 40.7682C105.574 47.5104 108 55.4719 108 64ZM26.6261 87.2318L87.2318 26.6261C80.4896 22.4262 72.5281 20 64 20C39.6995 20 20 39.6995 20 64C20 72.5281 22.4262 80.4896 26.6261 87.2318Z" fill="current"/>
</g>
<defs>
<clipPath id="clip0_364_84">
<rect width="128" height="128" fill="white"/>
</clipPath>
</defs>
</svg>
