<svg width="current" height="current" viewBox="0 0 128 128" fill="none" xmlns="http://www.w3.org/2000/svg">
<path d="M110.754 61.6344L77.7228 4.49832C76.3333 2.09489 73.2519 1.28359 70.859 2.69116L62.4656 7.62845C60.1032 9.01808 59.2999 12.0506 60.6644 14.4275L87.7722 61.6476C88.6572 63.1891 88.6572 65.0847 87.7722 66.6262L60.6644 113.846C59.2999 116.223 60.1032 119.256 62.4656 120.645L70.859 125.583C73.2519 126.99 76.3333 126.179 77.7228 123.776L110.754 66.6394C111.65 65.0911 111.65 63.1827 110.754 61.6344Z" fill="current"/>
<path d="M67.7545 61.6344L34.7228 4.49832C33.3333 2.09489 30.2519 1.28359 27.859 2.69116L19.4656 7.62845C17.1032 9.01808 16.2999 12.0506 17.6644 14.4275L44.7722 61.6476C45.6572 63.1891 45.6572 65.0847 44.7722 66.6262L17.6644 113.846C16.2999 116.223 17.1032 119.256 19.4656 120.645L27.859 125.583C30.2519 126.99 33.3333 126.179 34.7228 123.776L67.7545 66.6394C68.6496 65.0911 68.6496 63.1827 67.7545 61.6344Z" fill="current"/>
</svg>
