<svg viewBox="0 0 128 128" fill="none" xmlns="http://www.w3.org/2000/svg">
<path d="M0 32V22C0 19.2386 2.23858 17 5 17H123C125.761 17 128 19.2386 128 22V32C128 34.7614 125.761 37 123 37H5C2.23858 37 0 34.7614 0 32Z" />
<path d="M0 69V59C0 56.2386 2.23858 54 5 54H123C125.761 54 128 56.2386 128 59V69C128 71.7614 125.761 74 123 74H5C2.23858 74 0 71.7614 0 69Z" />
<path d="M0 106V96C0 93.2386 2.23858 91 5 91H123C125.761 91 128 93.2386 128 96V106C128 108.761 125.761 111 123 111H5C2.23858 111 0 108.761 0 106Z" />
</svg>
