<svg width="current" height="current" viewBox="0 0 508 117" fill="none" xmlns="http://www.w3.org/2000/svg">
<circle cx="58.5" cy="58.5" r="48.5" fill="url(#paint0_linear_213_715)"/>
<path d="M84.7007 85.0793C61.9476 92.3107 49.0549 96.4082 20.818 66.8314C32.1636 102.495 46.1239 113.074 85.1412 84.9393L84.7007 85.0793Z" fill="url(#paint1_linear_213_715)"/>
<path d="M92.8354 35.5263C87.4592 71.4006 72.809 77.0313 34.3597 71.742C34.3597 71.742 72.215 99.6711 92.8354 76.3457C113.456 53.0203 92.8354 35.5263 92.8354 35.5263Z" fill="#DAC475"/>
<path d="M74.6772 40.13C70.6762 64.99 30.6665 64.9899 30.051 44.4268C30.051 44.4268 22.9003 68.9798 50.3636 68.9798C77.8269 68.9798 74.6772 40.13 74.6772 40.13Z" fill="url(#paint2_linear_213_715)"/>
<path d="M62.6743 26.3189C72.5228 40.13 57.1345 53.3273 43.5927 46.5752C43.5927 46.5752 62.6743 58.8517 69.7529 44.4268C76.8315 30.0019 62.6743 26.3189 62.6743 26.3189Z" fill="url(#paint3_linear_213_715)"/>
<path d="M48.2092 18.6461C81.3295 26.2619 84.8001 36.7634 74.6772 62.2277C74.6772 62.2277 99.914 35.5263 81.7558 22.0222C63.5976 8.518 48.2092 18.6461 48.2092 18.6461Z" fill="url(#paint4_linear_213_715)"/>
<path d="M30.051 68.9798C24.3574 60.2661 21.7778 52.4209 25.7423 30.9226C12.3779 40.8372 11.8016 53.4465 30.051 68.9798Z" fill="url(#paint5_linear_213_715)"/>
<path d="M50.3636 33.071C35.4333 37.6283 37.2731 43.0699 43.5927 53.6341C43.5927 53.6341 31.2821 52.0997 34.3597 40.13C37.4373 28.1604 50.3636 33.071 50.3636 33.071Z" fill="url(#paint6_linear_213_715)"/>
<path d="M53.4412 24.1705C37.8005 26.2374 33.8873 29.7896 30.051 37.6747C30.051 37.6747 26.0501 27.2397 34.3597 22.0222C42.6694 16.8046 53.4412 24.1705 53.4412 24.1705Z" fill="url(#paint7_linear_213_715)"/>
<path d="M59.9043 40.13C58.3671 32.8359 55.2032 30.3 46.0548 28.1604C46.0548 28.1604 54.1899 23.2498 59.9043 28.1604C65.6187 33.071 59.9043 40.13 59.9043 40.13Z" fill="url(#paint8_linear_213_715)"/>
<path d="M55.2878 40.7438C51.9024 37.6747 48.2092 40.13 50.3636 44.4268C50.3636 44.4268 45.4393 43.292 45.4393 40.7438C45.4393 36.447 49.8875 35.8294 52.2101 36.447C56.8266 37.6747 55.2878 40.7438 55.2878 40.7438Z" fill="url(#paint9_linear_213_715)"/>
<path d="M474.843 80.9583V43.5486H461.771V35.7471H497.414V43.5486H484.31V80.9583H474.843Z" fill="#372F37"/>
<path d="M417.193 80.9583V35.7471H426.66V54.1073H447.037V35.7471H456.504V80.9583H447.037V61.9088H426.66V80.9583H417.193Z" fill="#372F37"/>
<path d="M390.86 81.7416C377.349 81.7416 369.073 72.9375 369.073 58.2118V58.1804C369.073 43.7053 377.38 34.9639 390.641 34.9639C401.519 34.9639 408.917 41.2928 410.422 49.7836L410.516 50.2223H401.017L400.892 49.9089C399.387 45.5225 395.782 42.9847 390.672 42.9847C383.211 42.9847 378.728 48.499 378.728 58.0864V58.1178C378.728 67.9245 383.493 73.7208 391.017 73.7208C397.193 73.7208 401.425 70.055 401.675 64.478L401.707 63.8201H391.362V56.7705H410.923V61.9715C410.923 74.2848 403.462 81.7416 390.86 81.7416Z" fill="#372F37"/>
<path d="M353.493 80.9583V35.7471H362.96V80.9583H353.493Z" fill="#372F37"/>
<path d="M318.633 80.9583V35.7471H328.101V73.1568H347.881V80.9583H318.633Z" fill="#372F37"/>
<path d="M272.739 80.9583V35.7471H281.015L301.454 65.136H301.643V35.7471H311.078V80.9583H302.865L282.363 51.3502H282.175V80.9583H272.739Z" fill="#372F37"/>
<path d="M244.808 81.7416C231.359 81.7416 222.989 72.7495 222.989 58.3684V58.3057C222.989 43.9246 231.422 34.9639 244.808 34.9639C258.225 34.9639 266.626 43.956 266.626 58.3057V58.3684C266.626 72.7495 258.256 81.7416 244.808 81.7416ZM244.808 73.7208C252.331 73.7208 256.971 67.7365 256.971 58.3684V58.3057C256.971 48.875 252.237 42.9847 244.808 42.9847C237.409 42.9847 232.644 48.8437 232.644 58.3057V58.3684C232.644 67.8305 237.378 73.7208 244.808 73.7208Z" fill="#372F37"/>
<path d="M196.468 81.7416C183.02 81.7416 174.65 72.7495 174.65 58.3684V58.3057C174.65 43.9246 183.082 34.9639 196.468 34.9639C209.885 34.9639 218.287 43.956 218.287 58.3057V58.3684C218.287 72.7495 209.917 81.7416 196.468 81.7416ZM196.468 73.7208C203.992 73.7208 208.631 67.7365 208.631 58.3684V58.3057C208.631 48.875 203.898 42.9847 196.468 42.9847C189.07 42.9847 184.305 48.8437 184.305 58.3057V58.3684C184.305 67.8305 189.039 73.7208 196.468 73.7208Z" fill="#372F37"/>
<path d="M120.762 80.9583V35.7471H131.702L144.555 68.2378H144.743L157.596 35.7471H168.537V80.9583H160.104V50.3789H159.822L147.627 80.9583H141.671L129.445 50.3789H129.194V80.9583H120.762Z" fill="#372F37"/>
<defs>
<linearGradient id="paint0_linear_213_715" x1="58.5" y1="10" x2="58.5" y2="107" gradientUnits="userSpaceOnUse">
<stop stop-color="#372F37"/>
<stop offset="1" stop-color="#141414"/>
</linearGradient>
<linearGradient id="paint1_linear_213_715" x1="22" y1="68.5" x2="72" y2="99.5" gradientUnits="userSpaceOnUse">
<stop stop-color="#64828F"/>
<stop offset="1" stop-color="#456D7E"/>
</linearGradient>
<linearGradient id="paint2_linear_213_715" x1="75" y1="40" x2="33.5" y2="61.5" gradientUnits="userSpaceOnUse">
<stop stop-color="#537381"/>
<stop offset="1" stop-color="#385765"/>
</linearGradient>
<linearGradient id="paint3_linear_213_715" x1="62.5" y1="26.5" x2="57.5" y2="51.5" gradientUnits="userSpaceOnUse">
<stop stop-color="#98BBCA"/>
<stop offset="1" stop-color="#87A9B8"/>
</linearGradient>
<linearGradient id="paint4_linear_213_715" x1="52" y1="17" x2="85.5" y2="47.5" gradientUnits="userSpaceOnUse">
<stop stop-color="#7295A4"/>
<stop offset="1" stop-color="#5B7F8F"/>
</linearGradient>
<linearGradient id="paint5_linear_213_715" x1="26" y1="32" x2="27" y2="67.5" gradientUnits="userSpaceOnUse">
<stop stop-color="#375866"/>
<stop offset="1" stop-color="#2C424B"/>
</linearGradient>
<linearGradient id="paint6_linear_213_715" x1="45" y1="32.5" x2="35.5" y2="49.5" gradientUnits="userSpaceOnUse">
<stop stop-color="#627D88"/>
<stop offset="1" stop-color="#4C6671"/>
</linearGradient>
<linearGradient id="paint7_linear_213_715" x1="29" y1="31.5" x2="48.5" y2="22.5" gradientUnits="userSpaceOnUse">
<stop stop-color="#507585"/>
<stop offset="1" stop-color="#4B7688"/>
</linearGradient>
<linearGradient id="paint8_linear_213_715" x1="51" y1="27" x2="60" y2="40" gradientUnits="userSpaceOnUse">
<stop stop-color="#42788F"/>
<stop offset="1" stop-color="#2C6780"/>
</linearGradient>
<linearGradient id="paint9_linear_213_715" x1="46.5" y1="38" x2="54" y2="43" gradientUnits="userSpaceOnUse">
<stop stop-color="#6E96A7"/>
<stop offset="1" stop-color="#54727F"/>
</linearGradient>
</defs>
</svg>
