<svg viewBox="0 0 128 128" fill="none" xmlns="http://www.w3.org/2000/svg">
<path d="M64 0C84.4345 0 101 16.5655 101 37V54C106.523 54 111 58.4772 111 64V108C111 119.046 102.046 128 91 128H37C25.9543 128 17 119.046 17 108V64C17 58.6498 21.2017 54.2805 26.4854 54.0127L27 54V37C27 16.5655 43.5655 0 64 0ZM64 74C58.4772 74 54 78.4772 54 84C54 87.7581 56.0735 91.031 59.1387 92.7393C59.5888 92.9901 59.828 93.5179 59.665 94.0068L54.4385 109.684C54.2226 110.331 54.7051 111 55.3877 111H72.6123C73.2948 111 73.7773 110.331 73.5615 109.684L68.3359 94.0068C68.1731 93.5181 68.4115 92.9902 68.8613 92.7393C71.9262 91.0309 74 87.7579 74 84C74 78.4772 69.5228 74 64 74ZM64 10C49.0883 10 37 22.0883 37 37V54H91V37C91 22.0883 78.9117 10 64 10Z" />
</svg>
