<svg width="current" height="current" viewBox="0 0 128 128" fill="none" xmlns="http://www.w3.org/2000/svg">
<path fill-rule="evenodd" clip-rule="evenodd" d="M64.1036 101C97.5478 101 116.048 82.1993 126.413 66.6223C127.472 65.0306 127.472 62.9694 126.413 61.3777C116.048 45.8007 97.5478 27 64.1036 27C30.6594 27 12.1595 45.8007 1.7944 61.3777C0.735201 62.9694 0.735201 65.0306 1.7944 66.6223C12.1595 82.1993 30.6594 101 64.1036 101ZM64.1036 89C86.4659 89 99.1098 76.984 106.343 66.6424C107.455 65.0524 107.455 62.9476 106.343 61.3576C99.1098 51.016 86.4659 39 64.1036 39C41.7413 39 29.0974 51.016 21.865 61.3576C20.753 62.9476 20.753 65.0524 21.865 66.6424C29.0974 76.984 41.7413 89 64.1036 89Z" fill="current"/>
<path d="M64.1036 86C76.2539 86 86.1036 76.1503 86.1036 64C86.1036 51.8497 76.2539 42 64.1036 42C51.9533 42 42.1036 51.8497 42.1036 64C42.1036 76.1503 51.9533 86 64.1036 86Z" fill="current"/>
</svg>
