<svg viewBox="0 0 508 118" fill="none" xmlns="http://www.w3.org/2000/svg">
<circle cx="58.5" cy="59" r="48.5" fill="url(#paint0_linear_213_715)"/>
<path d="M84.7007 85.5793C61.9476 92.8107 49.0549 96.9082 20.818 67.3314C32.1636 102.995 46.1239 113.574 85.1412 85.4393L84.7007 85.5793Z" fill="url(#paint1_linear_213_715)"/>
<path d="M92.8354 36.0263C87.4592 71.9006 72.809 77.5313 34.3597 72.242C34.3597 72.242 72.215 100.171 92.8354 76.8457C113.456 53.5203 92.8354 36.0263 92.8354 36.0263Z" fill="#DAC475"/>
<path d="M74.6772 40.63C70.6762 65.49 30.6665 65.4899 30.051 44.9268C30.051 44.9268 22.9003 69.4798 50.3636 69.4798C77.8269 69.4798 74.6772 40.63 74.6772 40.63Z" fill="url(#paint2_linear_213_715)"/>
<path d="M62.6743 26.8189C72.5228 40.63 57.1345 53.8273 43.5927 47.0752C43.5927 47.0752 62.6743 59.3517 69.7529 44.9268C76.8315 30.5019 62.6743 26.8189 62.6743 26.8189Z" fill="url(#paint3_linear_213_715)"/>
<path d="M48.2092 19.1461C81.3295 26.7619 84.8001 37.2634 74.6772 62.7277C74.6772 62.7277 99.914 36.0263 81.7558 22.5222C63.5976 9.018 48.2092 19.1461 48.2092 19.1461Z" fill="url(#paint4_linear_213_715)"/>
<path d="M30.051 69.4798C24.3574 60.7661 21.7778 52.9209 25.7423 31.4226C12.3779 41.3372 11.8016 53.9465 30.051 69.4798Z" fill="url(#paint5_linear_213_715)"/>
<path d="M50.3636 33.571C35.4333 38.1283 37.2731 43.5699 43.5927 54.1341C43.5927 54.1341 31.2821 52.5997 34.3597 40.63C37.4373 28.6604 50.3636 33.571 50.3636 33.571Z" fill="url(#paint6_linear_213_715)"/>
<path d="M53.4412 24.6705C37.8005 26.7374 33.8873 30.2896 30.051 38.1747C30.051 38.1747 26.0501 27.7397 34.3597 22.5222C42.6694 17.3046 53.4412 24.6705 53.4412 24.6705Z" fill="url(#paint7_linear_213_715)"/>
<path d="M59.9043 40.63C58.3671 33.3359 55.2032 30.8 46.0548 28.6604C46.0548 28.6604 54.1899 23.7498 59.9043 28.6604C65.6187 33.571 59.9043 40.63 59.9043 40.63Z" fill="url(#paint8_linear_213_715)"/>
<path d="M55.2878 41.2438C51.9024 38.1747 48.2092 40.63 50.3636 44.9268C50.3636 44.9268 45.4393 43.792 45.4393 41.2438C45.4393 36.947 49.8875 36.3294 52.2101 36.947C56.8266 38.1747 55.2878 41.2438 55.2878 41.2438Z" fill="url(#paint9_linear_213_715)"/>
<path d="M474.843 81.4583V44.0486H461.771V36.2471H497.414V44.0486H484.31V81.4583H474.843Z" fill="#372F37"/>
<path d="M417.193 81.4583V36.2471H426.66V54.6073H447.037V36.2471H456.504V81.4583H447.037V62.4088H426.66V81.4583H417.193Z" fill="#372F37"/>
<path d="M390.86 82.2416C377.349 82.2416 369.073 73.4375 369.073 58.7118V58.6804C369.073 44.2053 377.38 35.4639 390.641 35.4639C401.519 35.4639 408.917 41.7928 410.422 50.2836L410.516 50.7222H401.017L400.892 50.4089C399.387 46.0225 395.782 43.4847 390.672 43.4847C383.211 43.4847 378.728 48.999 378.728 58.5864V58.6178C378.728 68.4245 383.493 74.2208 391.017 74.2208C397.193 74.2208 401.425 70.555 401.675 64.978L401.707 64.3201H391.362V57.2705H410.923V62.4715C410.923 74.7848 403.462 82.2416 390.86 82.2416Z" fill="#372F37"/>
<path d="M353.493 81.4583V36.2471H362.96V81.4583H353.493Z" fill="#372F37"/>
<path d="M318.633 81.4583V36.2471H328.101V73.6568H347.881V81.4583H318.633Z" fill="#372F37"/>
<path d="M272.739 81.4583V36.2471H281.015L301.454 65.636H301.643V36.2471H311.078V81.4583H302.865L282.363 51.8502H282.175V81.4583H272.739Z" fill="#372F37"/>
<path d="M244.808 82.2416C231.359 82.2416 222.989 73.2495 222.989 58.8684V58.8057C222.989 44.4246 231.422 35.4639 244.808 35.4639C258.225 35.4639 266.626 44.456 266.626 58.8057V58.8684C266.626 73.2495 258.256 82.2416 244.808 82.2416ZM244.808 74.2208C252.331 74.2208 256.971 68.2365 256.971 58.8684V58.8057C256.971 49.375 252.237 43.4847 244.808 43.4847C237.409 43.4847 232.644 49.3437 232.644 58.8057V58.8684C232.644 68.3305 237.378 74.2208 244.808 74.2208Z" fill="#372F37"/>
<path d="M196.468 82.2416C183.02 82.2416 174.65 73.2495 174.65 58.8684V58.8057C174.65 44.4246 183.082 35.4639 196.468 35.4639C209.885 35.4639 218.287 44.456 218.287 58.8057V58.8684C218.287 73.2495 209.917 82.2416 196.468 82.2416ZM196.468 74.2208C203.992 74.2208 208.631 68.2365 208.631 58.8684V58.8057C208.631 49.375 203.898 43.4847 196.468 43.4847C189.07 43.4847 184.305 49.3437 184.305 58.8057V58.8684C184.305 68.3305 189.039 74.2208 196.468 74.2208Z" fill="#372F37"/>
<path d="M120.762 81.4583V36.2471H131.702L144.555 68.7378H144.743L157.596 36.2471H168.537V81.4583H160.104V50.8789H159.822L147.627 81.4583H141.671L129.445 50.8789H129.194V81.4583H120.762Z" fill="#372F37"/>
<defs>
<linearGradient id="paint0_linear_213_715" x1="58.5" y1="10.5" x2="58.5" y2="107.5" gradientUnits="userSpaceOnUse">
<stop stop-color="#372F37"/>
<stop offset="1" stop-color="#141414"/>
</linearGradient>
<linearGradient id="paint1_linear_213_715" x1="22" y1="69" x2="72" y2="100" gradientUnits="userSpaceOnUse">
<stop stop-color="#64828F"/>
<stop offset="1" stop-color="#456D7E"/>
</linearGradient>
<linearGradient id="paint2_linear_213_715" x1="75" y1="40.5" x2="33.5" y2="62" gradientUnits="userSpaceOnUse">
<stop stop-color="#537381"/>
<stop offset="1" stop-color="#385765"/>
</linearGradient>
<linearGradient id="paint3_linear_213_715" x1="62.5" y1="27" x2="57.5" y2="52" gradientUnits="userSpaceOnUse">
<stop stop-color="#98BBCA"/>
<stop offset="1" stop-color="#87A9B8"/>
</linearGradient>
<linearGradient id="paint4_linear_213_715" x1="52" y1="17.5" x2="85.5" y2="48" gradientUnits="userSpaceOnUse">
<stop stop-color="#7295A4"/>
<stop offset="1" stop-color="#5B7F8F"/>
</linearGradient>
<linearGradient id="paint5_linear_213_715" x1="26" y1="32.5" x2="27" y2="68" gradientUnits="userSpaceOnUse">
<stop stop-color="#375866"/>
<stop offset="1" stop-color="#2C424B"/>
</linearGradient>
<linearGradient id="paint6_linear_213_715" x1="45" y1="33" x2="35.5" y2="50" gradientUnits="userSpaceOnUse">
<stop stop-color="#627D88"/>
<stop offset="1" stop-color="#4C6671"/>
</linearGradient>
<linearGradient id="paint7_linear_213_715" x1="29" y1="32" x2="48.5" y2="23" gradientUnits="userSpaceOnUse">
<stop stop-color="#507585"/>
<stop offset="1" stop-color="#4B7688"/>
</linearGradient>
<linearGradient id="paint8_linear_213_715" x1="51" y1="27.5" x2="60" y2="40.5" gradientUnits="userSpaceOnUse">
<stop stop-color="#42788F"/>
<stop offset="1" stop-color="#2C6780"/>
</linearGradient>
<linearGradient id="paint9_linear_213_715" x1="46.5" y1="38.5" x2="54" y2="43.5" gradientUnits="userSpaceOnUse">
<stop stop-color="#6E96A7"/>
<stop offset="1" stop-color="#54727F"/>
</linearGradient>
</defs>
</svg>
