<svg viewBox="0 0 128 128" fill="none" xmlns="http://www.w3.org/2000/svg">
<g clip-path="url(#clip0_470_109)">
<path fill-rule="evenodd" clip-rule="evenodd" d="M41.1779 126.207C60.3801 133.196 81.6122 123.295 88.6013 104.093C95.5903 84.8911 85.6896 63.659 66.4874 56.6699C47.2852 49.6809 26.053 59.5816 19.064 78.7838C12.075 97.986 21.9757 119.218 41.1779 126.207ZM44.5981 116.81C58.6105 121.91 74.1042 114.686 79.2043 100.673C84.3044 86.6607 77.0796 71.167 63.0672 66.0669C49.0548 60.9668 33.561 68.1916 28.4609 82.204C23.3608 96.2164 30.5857 111.71 44.5981 116.81Z" />
<path d="M71.0149 58.8499L61.618 55.4297L75.1278 18.3118L41.1624 34.1502L36.9787 25.1782L86.3247 2.16778L109.335 51.5137L100.363 55.6974L84.5247 21.732L71.0149 58.8499Z" />
</g>
<defs>
<clipPath id="clip0_470_109">
<rect width="128" height="128" fill="white"/>
</clipPath>
</defs>
</svg>
