<svg viewBox="0 0 128 128" fill="none" xmlns="http://www.w3.org/2000/svg">
<g clip-path="url(#clip0_413_94)">
<path d="M60.5153 3.38651L1.83454 60.4143C-1.38471 63.5429 0.830164 69 5.31921 69H17.4063L17.4062 123C17.4062 125.761 19.6448 128 22.4062 128H47.3594V91C47.3594 88.2386 49.5979 86 52.3594 86H75.6406C78.402 86 80.6406 88.2386 80.6406 91V128H105.594C108.355 128 110.594 125.761 110.594 123V69H122.681C127.17 69 129.385 63.5429 126.165 60.4143L67.4847 3.38651C65.5442 1.50074 62.4558 1.50074 60.5153 3.38651Z" />
</g>
<defs>
<clipPath id="clip0_413_94">
<rect width="128" height="128" fill="white"/>
</clipPath>
</defs>
</svg>
