<svg viewBox="0 0 128 128" fill="none" xmlns="http://www.w3.org/2000/svg">
<g clip-path="url(#clip0_615_109)">
<path d="M39.9582 88.0419C44.7131 92.7968 50.7713 96.0357 57.3665 97.3476C63.9617 98.6594 70.7983 97.986 77.0108 95.4127C83.2235 92.8393 88.5336 88.4811 92.2696 82.8899C96.0054 77.2988 97.9995 70.7253 97.9996 64.001C97.9996 57.2765 96.0054 50.702 92.2696 45.1107C88.5336 39.5196 83.2234 35.1613 77.0108 32.5879C70.7982 30.0146 63.9611 29.3419 57.3658 30.6537C50.9769 31.9247 45.0921 35.0035 40.4077 39.5174L39.9582 39.9587L47.0292 47.0297L13.7952 51.9795L18.745 18.7455L25.816 25.8165C33.368 18.2646 42.9901 13.1213 53.465 11.0377C63.9398 8.95426 74.7977 10.0235 84.6647 14.1106C94.5318 18.1977 102.965 25.1199 108.899 34C114.832 42.8802 118 53.3204 118 64.0003C118 74.6804 114.832 85.121 108.898 94.0012C102.965 102.881 94.5317 109.803 84.6647 113.89C74.7977 117.977 63.9398 119.046 53.465 116.963C42.9901 114.879 33.368 109.736 25.816 102.184L39.9582 88.0419Z"/>
</g>
<defs>
<clipPath id="clip0_615_109">
<rect width="128" height="128" fill="white"/>
</clipPath>
</defs>
</svg>
