<svg width="current" height="current" viewBox="0 0 128 128" fill="none" xmlns="http://www.w3.org/2000/svg">
<path d="M69 128H15C6.71573 128 0 121.284 0 113V15C0 6.71573 6.71573 0 15 0H69C77.2843 0 84 6.71573 84 15V37C84 42.5228 79.5229 47 74 47C68.4771 47 64 42.5228 64 37V20H20V108H64V91C64 85.4771 68.4771 81 74 81C79.5229 81 84 85.4771 84 91V113C84 121.284 77.2843 128 69 128Z" fill="current"/>
<path d="M99.5 71.5H37V56.5H99.5L86 42.5L96.5 32L128 64L96.5 96L86 85.5L99.5 71.5Z" fill="current"/>
</svg>
