<svg width="current" height="current" viewBox="0 0 128 128" fill="none" xmlns="http://www.w3.org/2000/svg">
<path d="M127.517 62.2279L103.751 21.7691C102.752 20.0672 100.535 19.4927 98.8129 20.4894L92.774 23.9856C91.0743 24.9696 90.4964 27.1169 91.4781 28.8001L110.982 62.2373C111.618 63.3289 111.618 64.6712 110.982 65.7627L91.4781 99.1997C90.4964 100.883 91.0743 103.031 92.774 104.014L98.8129 107.511C100.535 108.507 102.752 107.933 103.751 106.231L127.517 65.7721C128.161 64.6757 128.161 63.3243 127.517 62.2279Z" fill="current"/>
<path d="M0.483006 62.2279L24.2487 21.7691C25.2484 20.0672 27.4654 19.4927 29.1871 20.4894L35.226 23.9856C36.9257 24.9696 37.5036 27.1169 36.5219 28.8001L17.0183 62.2373C16.3816 63.3289 16.3816 64.6712 17.0183 65.7627L36.5219 99.1997C37.5036 100.883 36.9257 103.031 35.226 104.014L29.1871 107.511C27.4654 108.507 25.2484 107.933 24.2487 106.231L0.483006 65.7721C-0.161002 64.6757 -0.161002 63.3243 0.483006 62.2279Z" fill="current"/>
<path d="M39.7138 66.4863C28.4227 49.931 55.4783 31.3625 63.9999 55.748V55.8623C72.5215 31.4769 99.577 50.0453 88.286 66.6006C76.9949 83.1559 63.9999 93 63.9999 93V92.8857C63.9999 92.8857 51.0049 83.0416 39.7138 66.4863Z" fill="current"/>
</svg>
