<svg width="current" height="current" viewBox="0 0 128 128" fill="none" xmlns="http://www.w3.org/2000/svg">
<g clip-path="url(#clip0_626_143)">
<path d="M64 0C99.3462 0 128 28.6538 128 64C128 99.3462 99.3462 128 64 128C28.6538 128 0 99.3462 0 64C0 28.6538 28.6538 0 64 0ZM49.2744 64.4238C40.6004 64.4239 32.9149 70.0147 30.2451 78.2676L23.3584 99.5557C33.2564 110.86 47.794 118 64 118C80.425 118 95.136 110.666 105.04 99.0947L98.3027 78.2676C95.6329 70.0149 87.9482 64.424 79.2744 64.4238H49.2744ZM64.4971 20C53.7233 20 44.9893 28.734 44.9893 39.5078C44.9893 50.2816 53.7233 59.0156 64.4971 59.0156C75.2708 59.0156 84.0048 50.2816 84.0049 39.5078C84.0049 28.734 75.2709 20 64.4971 20Z" fill="current"/>
</g>
<defs>
<clipPath id="clip0_626_143">
<rect width="128" height="128" fill="white"/>
</clipPath>
</defs>
</svg>
