<svg width="512" height="512" viewBox="0 0 512 512" fill="none" xmlns="http://www.w3.org/2000/svg">
<g clip-path="url(#clip0_217_814)">
<mask id="mask0_217_814" style="mask-type:alpha" maskUnits="userSpaceOnUse" x="0" y="0" width="512" height="512">
<circle cx="256" cy="256" r="256" fill="#7295A4"/>
</mask>
<g mask="url(#mask0_217_814)">
<circle cx="256" cy="256" r="256" fill="#7295A4"/>
<path d="M305.606 653.434C275.754 675.219 235.246 675.219 205.394 653.434L90.7436 569.767C61.0839 548.122 48.6752 509.879 59.9763 474.944L103.921 339.096C115.267 304.021 147.93 280.258 184.795 280.258L326.205 280.258C363.07 280.258 395.733 304.021 407.079 339.096L451.024 474.944C462.325 509.879 449.916 548.122 420.256 569.767L305.606 653.434Z" fill="#D9D9D9"/>
<path d="M344 168.5C344 216.825 304.825 256 256.5 256C208.175 256 169 216.825 169 168.5C169 120.175 208.175 81 256.5 81C304.825 81 344 120.175 344 168.5Z" fill="#D9D9D9"/>
</g>
</g>
<defs>
<clipPath id="clip0_217_814">
<rect width="512" height="512" fill="white"/>
</clipPath>
</defs>
</svg>
