<svg width="128" height="128" viewBox="0 0 128 128" fill="none" xmlns="http://www.w3.org/2000/svg">
<g clip-path="url(#clip0_216_732)">
<circle cx="64" cy="64" r="64" fill="#372F37"/>
<path d="M98.5741 99.0737C68.5493 108.616 51.5363 114.023 14.2752 74.9941C29.2468 122.055 47.6686 136.015 99.1554 98.889L98.5741 99.0737Z" fill="#64828F"/>
<path d="M109.309 33.6842C102.214 81.0235 82.8819 88.4537 32.1447 81.474C32.1447 81.474 82.0981 118.329 109.309 87.549C136.519 56.7691 109.309 33.6842 109.309 33.6842Z" fill="#DAC475"/>
<path d="M85.3471 39.7592C80.0675 72.5641 27.2712 72.5641 26.459 45.4292C26.459 45.4292 17.023 77.8291 53.2633 77.8291C89.5035 77.8291 85.3471 39.7592 85.3471 39.7592Z" fill="#537381"/>
<path d="M69.5083 21.5343C82.5043 39.7592 62.198 57.1741 44.3285 48.2642C44.3285 48.2642 69.5083 64.4641 78.8491 45.4292C88.19 26.3943 69.5083 21.5343 69.5083 21.5343Z" fill="#98BBCA"/>
<path d="M50.4204 11.4093C94.1254 21.4591 98.7053 35.3167 85.3471 68.9191C85.3471 68.9191 118.649 33.6843 94.688 15.8643C70.7266 -1.95561 50.4204 11.4093 50.4204 11.4093Z" fill="#7295A4"/>
<path d="M26.459 77.8291C18.9458 66.3305 15.5418 55.9781 20.7732 27.6092C3.13775 40.6924 2.37737 57.3316 26.459 77.8291Z" fill="#375866"/>
<path d="M53.2633 30.4442C33.5614 36.458 35.9892 43.6387 44.3285 57.5791C44.3285 57.5791 28.0835 55.5542 32.1447 39.7592C36.2059 23.9642 53.2633 30.4442 53.2633 30.4442Z" fill="#627D88"/>
<path d="M57.3244 18.6993C36.6851 21.4267 31.5214 26.1141 26.459 36.5192C26.459 36.5192 21.1794 22.7493 32.1447 15.8643C43.11 8.9793 57.3244 18.6993 57.3244 18.6993Z" fill="#507585"/>
<path d="M65.8531 39.7592C63.8245 30.134 59.6495 26.7876 47.5774 23.9642C47.5774 23.9642 58.3124 17.4843 65.8531 23.9642C73.3937 30.4442 65.8531 39.7592 65.8531 39.7592Z" fill="#42788F"/>
<path d="M59.7612 40.5692C55.2938 36.5192 50.4203 39.7592 53.2633 45.4292C53.2633 45.4292 46.7652 43.9318 46.7652 40.5692C46.7652 34.8992 52.635 34.0841 55.6999 34.8992C61.7918 36.5192 59.7612 40.5692 59.7612 40.5692Z" fill="#6E96A7"/>
</g>
<defs>
<clipPath id="clip0_216_732">
<rect width="128" height="128" fill="white"/>
</clipPath>
</defs>
</svg>
