<svg width="current" height="current" viewBox="0 0 128 128" fill="none" xmlns="http://www.w3.org/2000/svg">
<g clip-path="url(#clip0_623_137)">
<path d="M55 21C55 25.9706 59.0294 30 64 30C68.9706 30 73 25.9706 73 21V13H90V21C90 25.9706 94.0294 30 99 30C103.971 30 108 25.9706 108 21V13C119.046 13 128 21.9543 128 33V108C128 119.046 119.046 128 108 128H20C8.95431 128 1.09524e-06 119.046 0 108V33C0 21.9543 8.95431 13 20 13V21C20 25.9706 24.0294 30 29 30C33.9706 30 38 25.9706 38 21V13H55V21ZM15 108C15 110.761 17.2387 113 20 113H108C110.761 113 113 110.761 113 108V47H15V108ZM29 0C32.866 0 36 3.13401 36 7V21C36 24.866 32.866 28 29 28C25.134 28 22 24.866 22 21V7C22 3.13401 25.134 0 29 0ZM64 0C67.866 0 71 3.13401 71 7V21C71 24.866 67.866 28 64 28C60.134 28 57 24.866 57 21V7C57 3.13401 60.134 0 64 0ZM99 0C102.866 0 106 3.13401 106 7V21C106 24.866 102.866 28 99 28C95.134 28 92 24.866 92 21V7C92 3.13401 95.134 0 99 0Z" fill="current"/>
<rect x="27" y="54" width="20" height="20" fill="current"/>
<rect x="27" y="81" width="20" height="20" fill="current"/>
<rect x="54" y="81" width="20" height="20" fill="current"/>
<rect x="81" y="81" width="20" height="20" fill="current"/>
<rect x="54" y="54" width="20" height="20" fill="current"/>
<rect x="81" y="54" width="20" height="20" fill="current"/>
</g>
<defs>
<clipPath id="clip0_623_137">
<rect width="128" height="128" fill="white"/>
</clipPath>
</defs>
</svg>
