<svg viewBox="0 0 128 128" fill="none" xmlns="http://www.w3.org/2000/svg">
<path d="M48.2217 89.2109C56.4314 102.676 63.4932 115 63.4932 115C63.5243 114.946 70.5626 102.66 78.916 89.2344C95.8945 92.0526 108 99.3901 108 108C108 119.046 88.0767 128 63.5 128C38.9233 128 19 119.046 19 108C19 99.3668 31.1709 92.0122 48.2217 89.2109Z" />
<path d="M64 0C84.9867 0 102 17.0134 102 38C102 46.7126 99.0661 54.7395 94.1348 61.1494H94.1377C94.1258 61.1633 94.1135 61.1774 94.1016 61.1914C93.6166 61.8199 93.1124 62.4329 92.5898 63.0293C81.82 76.5792 63.6299 108.207 63.5635 108.322C63.4938 108.201 43.4548 73.3581 33.8623 61.1494H33.8652C28.9339 54.7395 26 46.7126 26 38C26.0002 17.0134 43.0133 0 64 0ZM64 17.4717C52.6625 17.4717 43.4719 26.6625 43.4717 38C43.4717 49.3377 52.6623 58.5293 64 58.5293C75.3377 58.5293 84.5293 49.3377 84.5293 38C84.5291 26.6625 75.3376 17.4717 64 17.4717Z" />
</svg>
