<svg width="128" height="128" viewBox="0 0 128 128" fill="none" xmlns="http://www.w3.org/2000/svg">
<g clip-path="url(#clip0_206_170)">
<mask id="mask0_206_170" style="mask-type:luminance" maskUnits="userSpaceOnUse" x="0" y="0" width="128" height="128">
<path d="M128 0H0V128H128V0Z" fill="white"/>
</mask>
<g mask="url(#mask0_206_170)">
<path d="M108.17 5.83346C110.914 5.52487 113.389 7.49926 113.697 10.2434L115.374 25.1495L14.0126 36.548L12.3363 21.642C12.0277 18.8978 14.0021 16.4231 16.7463 16.1145L108.17 5.83346Z" fill="#B67A80"/>
<path d="M72.3954 9.85648L52.5207 12.0915L51.9619 7.12281C51.6533 4.37868 53.6277 1.90397 56.3719 1.59538L66.3092 0.477874C69.0533 0.169283 71.5281 2.14367 71.8367 4.8878L72.3954 9.85648Z" fill="#B67A80"/>
<path fill-rule="evenodd" clip-rule="evenodd" d="M17 37L36.137 124.073C36.641 126.366 38.6726 128 41.0204 128H86.9796C89.3274 128 91.359 126.366 91.863 124.073L111 37H17ZM63.1746 47C60.3459 47 58.0805 49.3446 58.1775 52.1716L60.2981 113.94C60.3758 116.204 62.2341 118 64.5 118C66.7659 118 68.6241 116.204 68.7019 113.94L70.8224 52.1716C70.9195 49.3445 68.6541 47 65.8254 47H63.1746ZM33.2653 53.0291C32.7314 49.8988 35.2127 47.0703 38.3858 47.192L40.763 47.2832C43.2546 47.3788 45.295 49.2956 45.5459 51.7764L51.8033 113.637C52.0518 116.094 50.0598 118.199 47.5923 118.086C45.6917 117.999 44.1084 116.6 43.7885 114.724L33.2653 53.0291ZM88.6416 47.5519C86.1615 47.6577 84.1346 49.567 83.8809 52.0364L77.5372 113.793C77.2816 116.281 79.2934 118.417 81.7924 118.31C83.7242 118.228 85.3361 116.807 85.6611 114.901L96.1653 53.286C96.7004 50.1472 94.2044 47.3145 91.0233 47.4502L88.6416 47.5519Z" fill="#B67A80"/>
</g>
</g>
<defs>
<clipPath id="clip0_206_170">
<rect width="128" height="128" fill="white"/>
</clipPath>
</defs>
</svg>
