<svg width="128" height="128" viewBox="0 0 128 128" fill="none" xmlns="http://www.w3.org/2000/svg">
<g clip-path="url(#clip0_85_2)">
<path fill-rule="evenodd" clip-rule="evenodd" d="M64 128C99.3462 128 128 99.3462 128 64C128 28.6538 99.3462 0 64 0C28.6538 0 0 28.6538 0 64C0 99.3462 28.6538 128 64 128ZM64 108C88.3005 108 108 88.3005 108 64C108 39.6995 88.3005 20 64 20C39.6995 20 20 39.6995 20 64C20 88.3005 39.6995 108 64 108Z" fill="#D8AAFF"/>
<path d="M23.0355 70.5355L49 96.5L98.9645 46.5355C100.917 44.5829 100.917 41.4171 98.9645 39.4645L92.0355 32.5355C90.0829 30.5829 86.9171 30.5829 84.9645 32.5355L49 68.5L37.0355 56.5355C35.0829 54.5829 31.9171 54.5829 29.9645 56.5355L23.0355 63.4645C21.0829 65.4171 21.0829 68.5829 23.0355 70.5355Z" fill="#D8AAFF"/>
</g>
<defs>
<clipPath id="clip0_85_2">
<rect width="128" height="128" fill="white"/>
</clipPath>
</defs>
</svg>
