<svg width="59" height="100" viewBox="0 0 59 100" fill="none" xmlns="http://www.w3.org/2000/svg">
<g clip-path="url(#clip0_73_5)">
<path d="M56.7742 5.64886L52.5395 1.41421C51.7585 0.63316 50.4921 0.63316 49.7111 1.41421L2.3722 48.7531C1.59115 49.5341 1.59115 50.8005 2.3722 51.5815L6.60685 55.8162C7.3879 56.5972 8.65423 56.5972 9.43528 55.8162L56.7742 8.47728C57.5552 7.69623 57.5552 6.42991 56.7742 5.64886Z" fill="#9EA4AA"/>
<path d="M52.2044 98.5857L56.4361 94.3541C57.2171 93.5731 57.2171 92.3067 56.4361 91.5257L9.44093 44.5305C8.65988 43.7495 7.39355 43.7495 6.6125 44.5305L2.38087 48.7622C1.59982 49.5432 1.59982 50.8095 2.38087 51.5906L49.376 98.5857C50.1571 99.3668 51.4234 99.3668 52.2044 98.5857Z" fill="#9EA4AA"/>
</g>
<defs>
<clipPath id="clip0_73_5">
<rect width="59" height="100" fill="white"/>
</clipPath>
</defs>
</svg>
