<svg width="85" height="105" viewBox="0 0 85 105" fill="none" xmlns="http://www.w3.org/2000/svg">
<path d="M67.9132 36H15.0868C14.5018 36 14.0417 36.5 14.0903 37.083L19.4236 101.083C19.4668 101.601 19.9 102 20.4201 102H62.5799C63.1 102 63.5332 101.601 63.5764 101.083L68.9097 37.083C68.9583 36.5 68.4982 36 67.9132 36Z" stroke="#D8AAFF" stroke-width="6"/>
<path d="M44 45.5C44 44.1193 42.8807 43 41.5 43C40.1193 43 39 44.1193 39 45.5V90.5C39 91.8807 40.1193 93 41.5 93C42.8807 93 44 91.8807 44 90.5V45.5Z" fill="#D8AAFF"/>
<path d="M57.4791 45.7583C57.5514 44.3794 56.4922 43.2031 55.1134 43.1308C53.7345 43.0586 52.5582 44.1178 52.486 45.4966L50.1308 90.4349C50.0586 91.8137 51.1177 92.9901 52.4966 93.0623C53.8754 93.1346 55.0517 92.0754 55.124 90.6966L57.4791 45.7583Z" fill="#D8AAFF"/>
<path d="M30.8013 45.3382C30.729 43.9594 29.5527 42.9002 28.1739 42.9725C26.7951 43.0447 25.7359 44.2211 25.8081 45.5999L28.1633 90.5382C28.2355 91.917 29.4119 92.9762 30.7907 92.9039C32.1695 92.8317 33.2287 91.6553 33.1564 90.2765L30.8013 45.3382Z" fill="#D8AAFF"/>
<path d="M2.73617 31.801C2.16949 30.244 2.97226 28.5225 4.52919 27.9558L65.6092 5.72452C67.1661 5.15785 68.8877 5.96061 69.4543 7.51754L71.8485 14.0954L5.13031 38.3788L2.73617 31.801Z" fill="#D8AAFF"/>
<path d="M37.5877 10.6027L29.1305 13.6808C27.5735 14.2475 26.7708 15.969 27.3375 17.526L28.7055 21.2847C29.2722 22.8417 30.9937 23.6444 32.5507 23.0778L41.0079 19.9996C42.5649 19.4329 43.3676 17.7114 42.8009 16.1544L41.4329 12.3957C40.8662 10.8387 39.1446 10.036 37.5877 10.6027Z" fill="#D8AAFF"/>
<path d="M64 24.7543H80C81.6569 24.7543 83 23.4112 83 21.7543V8M64 24.7543L69.4013 18.5086M64 24.7543L69.4013 31" stroke="#D8AAFF" stroke-width="4"/>
</svg>
