<svg width="128" height="128" viewBox="0 0 128 128" fill="none" xmlns="http://www.w3.org/2000/svg">
<g clip-path="url(#clip0_261_54)">
<path fill-rule="evenodd" clip-rule="evenodd" d="M69.8199 83.962C62.7853 88.4193 54.444 91 45.5 91C20.371 91 0 70.629 0 45.5C0 20.371 20.371 0 45.5 0C70.629 0 91 20.371 91 45.5C91 54.444 88.4193 62.7853 83.962 69.8199L127.889 113.747L113.747 127.889L69.8199 83.962ZM71 45.5C71 59.5833 59.5833 71 45.5 71C31.4167 71 20 59.5833 20 45.5C20 31.4167 31.4167 20 45.5 20C59.5833 20 71 31.4167 71 45.5Z" fill="white"/>
</g>
<defs>
<clipPath id="clip0_261_54">
<rect width="128" height="128" fill="white"/>
</clipPath>
</defs>
</svg>
