<svg width="128" height="128" viewBox="0 0 128 128" fill="none" xmlns="http://www.w3.org/2000/svg">
<g clip-path="url(#clip0_206_143)">
<mask id="mask0_206_143" style="mask-type:luminance" maskUnits="userSpaceOnUse" x="0" y="0" width="128" height="128">
<path d="M128 0H0V128H128V0Z" fill="white"/>
</mask>
<g mask="url(#mask0_206_143)">
<path d="M117.536 3.53551L124.464 10.4645C126.417 12.4171 126.417 15.5829 124.464 17.5355L17.5355 124.464C15.5829 126.417 12.4171 126.417 10.4645 124.464L3.5355 117.536C1.58288 115.583 1.58289 112.417 3.53551 110.464L110.464 3.53551C112.417 1.58289 115.583 1.58289 117.536 3.53551Z" fill="#B67A80"/>
<path d="M124.464 117.536L117.536 124.464C115.583 126.417 112.417 126.417 110.464 124.464L3.53551 17.5355C1.58289 15.5829 1.58289 12.4171 3.53551 10.4645L10.4645 3.53551C12.4171 1.58289 15.5829 1.58289 17.5355 3.53551L124.464 110.464C126.417 112.417 126.417 115.583 124.464 117.536Z" fill="#B67A80"/>
</g>
</g>
<defs>
<clipPath id="clip0_206_143">
<rect width="128" height="128" fill="white"/>
</clipPath>
</defs>
</svg>
