<svg width="511" height="117" viewBox="0 0 511 117" fill="none" xmlns="http://www.w3.org/2000/svg">
<circle cx="61.5" cy="58.5" r="48.5" fill="#372F37"/>
<path d="M87.7007 85.0793C64.9476 92.3107 52.0549 96.4082 23.818 66.8314C35.1636 102.495 49.1239 113.074 88.1412 84.9393L87.7007 85.0793Z" fill="#64828F"/>
<path d="M95.8354 35.5263C90.4592 71.4006 75.809 77.0313 37.3597 71.742C37.3597 71.742 75.215 99.6711 95.8354 76.3457C116.456 53.0204 95.8354 35.5263 95.8354 35.5263Z" fill="#DAC475"/>
<path d="M77.6772 40.13C73.6762 64.99 33.6665 64.9899 33.051 44.4268C33.051 44.4268 25.9003 68.9798 53.3636 68.9798C80.8269 68.9798 77.6772 40.13 77.6772 40.13Z" fill="#537381"/>
<path d="M65.6743 26.3189C75.5228 40.13 60.1345 53.3273 46.5927 46.5752C46.5927 46.5752 65.6743 58.8517 72.7529 44.4268C79.8315 30.0019 65.6743 26.3189 65.6743 26.3189Z" fill="#98BBCA"/>
<path d="M51.2092 18.6461C84.3295 26.2619 87.8001 36.7634 77.6772 62.2277C77.6772 62.2277 102.914 35.5263 84.7558 22.0222C66.5976 8.518 51.2092 18.6461 51.2092 18.6461Z" fill="#7295A4"/>
<path d="M33.051 68.9798C27.3574 60.2661 24.7778 52.4209 28.7423 30.9226C15.3779 40.8372 14.8016 53.4466 33.051 68.9798Z" fill="#375866"/>
<path d="M53.3636 33.071C38.4333 37.6283 40.2731 43.0699 46.5927 53.6341C46.5927 53.6341 34.2821 52.0997 37.3597 40.13C40.4373 28.1604 53.3636 33.071 53.3636 33.071Z" fill="#627D88"/>
<path d="M56.4412 24.1705C40.8005 26.2374 36.8873 29.7896 33.051 37.6747C33.051 37.6747 29.0501 27.2397 37.3597 22.0222C45.6694 16.8046 56.4412 24.1705 56.4412 24.1705Z" fill="#507585"/>
<path d="M62.9043 40.13C61.3671 32.8359 58.2032 30.3 49.0548 28.1604C49.0548 28.1604 57.1899 23.2498 62.9043 28.1604C68.6187 33.071 62.9043 40.13 62.9043 40.13Z" fill="#42788F"/>
<path d="M58.2878 40.7438C54.9024 37.6747 51.2092 40.13 53.3636 44.4268C53.3636 44.4268 48.4393 43.292 48.4393 40.7438C48.4393 36.447 52.8875 35.8294 55.2101 36.447C59.8266 37.6747 58.2878 40.7438 58.2878 40.7438Z" fill="#6E96A7"/>
<path d="M123.75 81.5V36.4062H134.656L147.469 68.8125H147.656L160.469 36.4062H171.375V81.5H162.969V51H162.688L150.531 81.5H144.594L132.406 51H132.156V81.5H123.75ZM199.219 82.2812C185.812 82.2812 177.469 73.3125 177.469 58.9688V58.9062C177.469 44.5625 185.875 35.625 199.219 35.625C212.594 35.625 220.969 44.5938 220.969 58.9062V58.9688C220.969 73.3125 212.625 82.2812 199.219 82.2812ZM199.219 74.2812C206.719 74.2812 211.344 68.3125 211.344 58.9688V58.9062C211.344 49.5 206.625 43.625 199.219 43.625C191.844 43.625 187.094 49.4688 187.094 58.9062V58.9688C187.094 68.4062 191.812 74.2812 199.219 74.2812ZM247.406 82.2812C234 82.2812 225.656 73.3125 225.656 58.9688V58.9062C225.656 44.5625 234.062 35.625 247.406 35.625C260.781 35.625 269.156 44.5938 269.156 58.9062V58.9688C269.156 73.3125 260.812 82.2812 247.406 82.2812ZM247.406 74.2812C254.906 74.2812 259.531 68.3125 259.531 58.9688V58.9062C259.531 49.5 254.812 43.625 247.406 43.625C240.031 43.625 235.281 49.4688 235.281 58.9062V58.9688C235.281 68.4062 240 74.2812 247.406 74.2812ZM275.25 81.5V36.4062H283.5L303.875 65.7188H304.062V36.4062H313.469V81.5H305.281L284.844 51.9688H284.656V81.5H275.25ZM321 81.5V36.4062H330.438V73.7188H350.156V81.5H321ZM355.75 81.5V36.4062H365.188V81.5H355.75ZM393 82.2812C379.531 82.2812 371.281 73.5 371.281 58.8125V58.7812C371.281 44.3438 379.562 35.625 392.781 35.625C403.625 35.625 411 41.9375 412.5 50.4062L412.594 50.8438H403.125L403 50.5312C401.5 46.1562 397.906 43.625 392.812 43.625C385.375 43.625 380.906 49.125 380.906 58.6875V58.7188C380.906 68.5 385.656 74.2812 393.156 74.2812C399.312 74.2812 403.531 70.625 403.781 65.0625L403.812 64.4062H393.5V57.375H413V62.5625C413 74.8438 405.562 82.2812 393 82.2812ZM419.25 81.5V36.4062H428.688V54.7188H449V36.4062H458.438V81.5H449V62.5H428.688V81.5H419.25ZM476.719 81.5V44.1875H463.688V36.4062H499.219V44.1875H486.156V81.5H476.719Z" fill="#372F37"/>
</svg>
