<svg width="128" height="128" viewBox="0 0 128 128" fill="none" xmlns="http://www.w3.org/2000/svg">
<path d="M110 13C112.761 13 115 15.2386 115 18L115 33L13 33L13 18C13 15.2386 15.2386 13 18 13L110 13Z" fill="#D8AAFF"/>
<path d="M74 13L54 13L54 8C54 5.23858 56.2386 3 59 3L69 3C71.7614 3 74 5.23858 74 8L74 13Z" fill="#D8AAFF"/>
<path fill-rule="evenodd" clip-rule="evenodd" d="M17 37L36.137 124.073C36.641 126.366 38.6726 128 41.0204 128H86.9796C89.3274 128 91.359 126.366 91.863 124.073L111 37H17ZM63.1746 47C60.3459 47 58.0805 49.3446 58.1775 52.1716L60.2981 113.94C60.3758 116.204 62.2341 118 64.5 118C66.7659 118 68.6241 116.204 68.7019 113.94L70.8224 52.1716C70.9195 49.3445 68.6541 47 65.8254 47H63.1746ZM33.2653 53.0291C32.7314 49.8988 35.2127 47.0703 38.3858 47.192L40.763 47.2832C43.2546 47.3788 45.295 49.2956 45.5459 51.7764L51.8033 113.637C52.0518 116.094 50.0598 118.199 47.5923 118.086C45.6917 117.999 44.1084 116.6 43.7885 114.724L33.2653 53.0291ZM88.6416 47.5519C86.1615 47.6577 84.1346 49.567 83.8809 52.0364L77.5372 113.793C77.2816 116.281 79.2934 118.417 81.7924 118.31C83.7242 118.228 85.3361 116.807 85.6611 114.901L96.1653 53.286C96.7004 50.1472 94.2044 47.3145 91.0233 47.4502L88.6416 47.5519Z" fill="#D8AAFF"/>
</svg>
