<svg width="85" height="105" viewBox="0 0 85 105" fill="none" xmlns="http://www.w3.org/2000/svg">
<path d="M67.9132 36H15.0868C14.5018 36 14.0417 36.5 14.0903 37.083L19.4236 101.083C19.4668 101.601 19.9 102 20.4201 102H62.5799C63.1 102 63.5332 101.601 63.5764 101.083L68.9097 37.083C68.9583 36.5 68.4982 36 67.9132 36Z" stroke="white" stroke-width="6"/>
<rect x="39" y="43" width="5" height="50" rx="2.5" fill="white"/>
<rect x="52.6168" y="43" width="5" height="50" rx="2.5" transform="rotate(3 52.6168 43)" fill="white"/>
<rect x="25.6773" y="43.1033" width="5" height="50" rx="2.5" transform="rotate(-3 25.6773 43.1033)" fill="white"/>
<path d="M2.73616 31.801C2.16948 30.244 2.97225 28.5225 4.52918 27.9558L65.6092 5.72452C67.1661 5.15785 68.8877 5.96061 69.4543 7.51754L71.8485 14.0954L5.1303 38.3788L2.73616 31.801Z" fill="white"/>
<rect x="26.3114" y="14.7069" width="15" height="10" rx="3" transform="rotate(-20 26.3114 14.7069)" fill="white"/>
<path d="M64 24.7543H80C81.6569 24.7543 83 23.4112 83 21.7543V8M64 24.7543L69.4013 18.5086M64 24.7543L69.4013 31" stroke="white" stroke-width="4"/>
</svg>
