<svg width="128" height="128" viewBox="0 0 128 128" fill="none" xmlns="http://www.w3.org/2000/svg">
<g clip-path="url(#clip0_85_2)">
<path fill-rule="evenodd" clip-rule="evenodd" d="M117.932 24.1421L103.79 10L91.769 22.0208L105.911 36.1629L117.932 24.1421ZM103.79 38.2843L89.6477 24.1421L35.4737 78.3162L28 99.9319L49.6158 92.4583L103.79 38.2843Z" fill="white"/>
<path fill-rule="evenodd" clip-rule="evenodd" d="M77.2586 20.0001C78.5847 20.0001 79.8565 19.4733 80.7942 18.5356L90.7943 8.53552C93.9441 5.3857 91.7133 -1.36903e-05 87.2588 -1.30254e-05L5 -7.46365e-07C2.23858 -3.34159e-07 0 2.23858 0 5V123C0 125.761 2.23858 128 5 128H123C125.761 128 128 125.761 128 123V40.0292C128 35.5806 122.627 33.3471 119.473 36.485L109.473 46.4359C108.53 47.3743 108 48.6498 108 49.9801V103C108 105.762 105.761 108 103 108H25C22.2386 108 20 105.762 20 103V25.0001C20 22.2387 22.2386 20.0001 25 20.0001H77.2586Z" fill="white"/>
</g>
<defs>
<clipPath id="clip0_85_2">
<rect width="128" height="128" fill="white"/>
</clipPath>
</defs>
</svg>
