<svg width="128" height="128" viewBox="0 0 128 128" fill="none" xmlns="http://www.w3.org/2000/svg">
<g clip-path="url(#clip0_333_82)">
<path d="M45.6714 44H13.3651C9.05435 44 7.21048 49.4763 10.6434 52.0836L36.9999 72.1012C38.5019 73.242 39.1331 75.1984 38.581 77.002L28.6391 109.479C27.3549 113.674 32.2198 117.039 35.6922 114.358L61.2498 94.6236C62.8699 93.3726 65.1301 93.3726 66.7502 94.6236L92.3078 114.358C95.7802 117.039 100.645 113.674 99.3609 109.479L89.419 77.002C88.8669 75.1984 89.4981 73.242 91.0001 72.1012L117.357 52.0836C120.79 49.4763 118.946 44 114.635 44H82.3286C80.3507 44 78.6046 42.7085 78.0257 40.8172L68.3029 9.05614C67.0038 4.81242 60.9962 4.81243 59.6971 9.05614L49.9743 40.8172C49.3954 42.7085 47.6493 44 45.6714 44Z" fill="#DAC475"/>
</g>
<defs>
<clipPath id="clip0_333_82">
<rect width="128" height="128" fill="white"/>
</clipPath>
</defs>
</svg>
