<svg width="128" height="128" viewBox="0 0 128 128" fill="none" xmlns="http://www.w3.org/2000/svg">
<g clip-path="url(#clip0_206_150)">
<mask id="mask0_206_150" style="mask-type:luminance" maskUnits="userSpaceOnUse" x="0" y="0" width="128" height="128">
<path d="M128 0H0V128H128V0Z" fill="white"/>
</mask>
<g mask="url(#mask0_206_150)">
<path d="M66.5025 38.4468L123.639 71.4785C126.042 72.868 126.853 75.9494 125.446 78.3423L120.508 86.7357C119.119 89.0981 116.086 89.9014 113.709 88.5369L66.4893 61.4291C64.9478 60.5441 63.0522 60.5441 61.5107 61.4291L14.2906 88.5369C11.9137 89.9014 8.88124 89.0981 7.49161 86.7357L2.55432 78.3423C1.14675 75.9494 1.95806 72.868 4.36148 71.4785L61.4975 38.4468C63.0458 37.5517 64.9542 37.5517 66.5025 38.4468Z" fill="#B67A80"/>
</g>
</g>
<defs>
<clipPath id="clip0_206_150">
<rect width="128" height="128" fill="white"/>
</clipPath>
</defs>
</svg>
