<svg width="128" height="128" viewBox="0 0 128 128" fill="none" xmlns="http://www.w3.org/2000/svg">
<path fill-rule="evenodd" clip-rule="evenodd" d="M64 5.87335C62.1733 5.87335 60.3466 6.93428 59.6971 9.05614L49.9743 40.8172C49.3953 42.7085 47.6493 44 45.6714 44H13.3651C9.05434 44 7.21047 49.4763 10.6434 52.0836L36.9998 72.1012C38.5019 73.242 39.1331 75.1984 38.581 77.002L28.6391 109.479C27.3549 113.674 32.2198 117.039 35.6922 114.358L61.2498 94.6236C62.0598 93.9981 63.0299 93.6854 64 93.6854V5.87335Z" fill="#DAC475"/>
<path d="M64 93.6854H63V94.6854H64V93.6854ZM66.7502 94.6236L67.3614 93.8321L67.3614 93.8321L66.7502 94.6236ZM92.3078 114.358L91.6966 115.149L91.6966 115.149L92.3078 114.358ZM99.3609 109.479L98.4047 109.772L98.4047 109.772L99.3609 109.479ZM89.419 77.002L88.4628 77.2947L88.4628 77.2947L89.419 77.002ZM91.0001 72.1012L90.3953 71.3048L90.3953 71.3048L91.0001 72.1012ZM117.357 52.0836L116.752 51.2872L116.752 51.2872L117.357 52.0836ZM78.0257 40.8172L78.9819 40.5245L78.9819 40.5245L78.0257 40.8172ZM68.3029 9.05614L67.3467 9.34885L67.3467 9.34885L68.3029 9.05614ZM64 5.87335L64 4.87335L63 4.87335V5.87335H64ZM64 94.6854C64.7551 94.6854 65.5089 94.9285 66.1391 95.4151L67.3614 93.8321C66.3714 93.0677 65.185 92.6854 64 92.6854V94.6854ZM66.1391 95.4151L91.6966 115.149L92.9189 113.566L67.3614 93.8321L66.1391 95.4151ZM91.6966 115.149C95.9406 118.426 101.887 114.313 100.317 109.186L98.4047 109.772C99.4035 113.034 95.6197 115.652 92.9189 113.566L91.6966 115.149ZM100.317 109.186L90.3752 76.7093L88.4628 77.2947L98.4047 109.772L100.317 109.186ZM90.3752 76.7093C89.9458 75.3065 90.4367 73.7848 91.605 72.8975L90.3953 71.3048C88.5595 72.6991 87.788 75.0904 88.4628 77.2947L90.3752 76.7093ZM91.605 72.8975L117.961 52.88L116.752 51.2872L90.3953 71.3048L91.605 72.8975ZM117.961 52.88C122.157 49.6933 119.904 43 114.635 43V45C117.988 45 119.422 49.2594 116.752 51.2872L117.961 52.88ZM114.635 43H82.3286V45H114.635V43ZM82.3286 43C80.7902 43 79.4322 41.9955 78.9819 40.5245L77.0695 41.1099C77.7771 43.4215 79.9111 45 82.3286 45V43ZM78.9819 40.5245L69.2591 8.76342L67.3467 9.34885L77.0695 41.1099L78.9819 40.5245ZM69.2591 8.76342C68.466 6.1727 66.2132 4.87335 64 4.87335L64 6.87335C65.4401 6.87335 66.8407 7.69586 67.3467 9.34885L69.2591 8.76342ZM63 5.87335V93.6854H65V5.87335H63Z" fill="black"/>
</svg>
