<svg width="59" height="100" viewBox="0 0 59 100" fill="none" xmlns="http://www.w3.org/2000/svg">
<g clip-path="url(#clip0_73_2)">
<path d="M2.37216 94.3511L6.60681 98.5858C7.38786 99.3668 8.65419 99.3668 9.43524 98.5858L56.7741 51.2469C57.5552 50.4659 57.5552 49.1995 56.7741 48.4185L52.5395 44.1838C51.7584 43.4028 50.4921 43.4028 49.711 44.1838L2.37216 91.5227C1.59111 92.3038 1.59111 93.5701 2.37216 94.3511Z" fill="#9EA4AA"/>
<path d="M6.9419 1.41421L2.71026 5.64584C1.92922 6.42689 1.92922 7.69321 2.71026 8.47426L49.7054 55.4694C50.4865 56.2505 51.7528 56.2505 52.5339 55.4694L56.7655 51.2378C57.5465 50.4567 57.5465 49.1904 56.7655 48.4094L9.77032 1.41421C8.98927 0.633157 7.72294 0.633157 6.9419 1.41421Z" fill="#9EA4AA"/>
</g>
<defs>
<clipPath id="clip0_73_2">
<rect width="59" height="100" fill="white"/>
</clipPath>
</defs>
</svg>
