<svg width="128" height="128" viewBox="0 0 128 128" fill="none" xmlns="http://www.w3.org/2000/svg">
<g clip-path="url(#clip0_206_236)">
<mask id="mask0_206_236" style="mask-type:luminance" maskUnits="userSpaceOnUse" x="0" y="0" width="128" height="128">
<path d="M128 0H0V128H128V0Z" fill="white"/>
</mask>
<g mask="url(#mask0_206_236)">
<path d="M61.4975 89.5532L4.36148 56.5215C1.95805 55.132 1.14675 52.0506 2.55432 49.6577L7.49162 41.2643C8.88124 38.9019 11.9137 38.0986 14.2906 39.4631L61.5107 66.5709C63.0522 67.4559 64.9478 67.4559 66.4893 66.5709L113.709 39.4631C116.086 38.0986 119.119 38.9019 120.508 41.2643L125.446 49.6577C126.853 52.0506 126.042 55.132 123.639 56.5215L66.5025 89.5532C64.9542 90.4483 63.0458 90.4483 61.4975 89.5532Z" fill="#B67A80"/>
</g>
</g>
<defs>
<clipPath id="clip0_206_236">
<rect width="128" height="128" fill="white"/>
</clipPath>
</defs>
</svg>
