<svg width="99" height="99" viewBox="0 0 99 99" fill="none" xmlns="http://www.w3.org/2000/svg">
<g clip-path="url(#clip0_64_15)">
<path fill-rule="evenodd" clip-rule="evenodd" d="M66.646 5H12C5.37258 5 0 10.3726 0 17V87C0 93.6274 5.37258 99 12 99H82C88.6274 99 94 93.6274 94 87V28.945L86.7692 36.1758V84.7692C86.7692 88.6352 83.6352 91.7692 79.7692 91.7692H14.2308C10.3648 91.7692 7.23077 88.6352 7.23077 84.7692V19.2308C7.23077 15.3648 10.3648 12.2308 14.2308 12.2308H59.4153L66.646 5Z" fill="#D8AAFF"/>
<path d="M96.8764 12.2027C98.2559 10.5571 87.6523 1.22109 86.8637 2.05225C86.4417 2.49698 83.1628 5.8134 80.6159 8.39051L90.7407 18.5066C93.1184 16.1293 96.1698 13.0455 96.8764 12.2027Z" fill="#D8AAFF"/>
<path d="M26.2314 63.5187L75.6827 13.3581M26.2314 63.5187L21.0994 75.9248M26.2314 63.5187L29.5598 66.7153M75.6827 13.3581C75.6827 13.3581 78.403 10.6298 80.6159 8.39051M75.6827 13.3581L79.2751 17M21.0994 75.9248L19 81L24.0063 78.9382M21.0994 75.9248L24.0063 78.9382M29.5598 66.7153L79.2751 17M29.5598 66.7153L32.8573 69.8822M80.6159 8.39051C83.1628 5.8134 86.4417 2.49698 86.8637 2.05225C87.6523 1.22109 98.2559 10.5571 96.8764 12.2027C96.1698 13.0455 93.1184 16.1293 90.7407 18.5066M80.6159 8.39051L90.7407 18.5066M79.2751 17L82.4853 20.2543M85.6954 23.5085L36.8003 73.6691M85.6954 23.5085C85.6954 23.5085 88.4762 20.7708 90.7407 18.5066M85.6954 23.5085L82.4853 20.2543M36.8003 73.6691L24.0063 78.9382M36.8003 73.6691L32.8573 69.8822M82.4853 20.2543L32.8573 69.8822" stroke="#D8AAFF" stroke-width="3"/>
</g>
<defs>
<clipPath id="clip0_64_15">
<rect width="99" height="99" fill="white"/>
</clipPath>
</defs>
</svg>
