<svg width="189" height="189" viewBox="0 0 189 189" fill="none" xmlns="http://www.w3.org/2000/svg">
<path fill-rule="evenodd" clip-rule="evenodd" d="M189 94.5C189 146.691 146.691 189 94.5 189C42.3091 189 0 146.691 0 94.5C0 42.3091 42.3091 0 94.5 0C146.691 0 189 42.3091 189 94.5ZM169 94.5C169 135.645 135.645 169 94.5 169C53.3548 169 20 135.645 20 94.5C20 53.3548 53.3548 20 94.5 20C135.645 20 169 53.3548 169 94.5ZM132 57L146.142 71.1421L83.8675 133.417L83.6903 133.24L83.3939 133.536L43 93.1421L57.1421 79L83.5711 105.429L132 57Z" fill="#D8AAFF"/>
</svg>
