<svg width="100" height="100" viewBox="0 0 100 100" fill="none" xmlns="http://www.w3.org/2000/svg">
<path fill-rule="evenodd" clip-rule="evenodd" d="M100 50C100 77.6142 77.6142 100 50 100C22.3858 100 0 77.6142 0 50C0 22.3858 22.3858 0 50 0C77.6142 0 100 22.3858 100 50ZM89.418 50C89.418 71.77 71.77 89.418 50 89.418C28.23 89.418 10.582 71.77 10.582 50C10.582 28.23 28.23 10.582 50 10.582C71.77 10.582 89.418 28.23 89.418 50ZM66.3057 33.6943C68.2584 31.7417 71.4242 31.7416 73.3768 33.6943L73.7884 34.1058C75.741 36.0584 75.741 39.2243 73.7884 41.1769L44.3744 70.5909L44.2806 70.4971L44.1238 70.654L26.4926 53.0229C24.4264 50.9566 24.4264 47.6065 26.4926 45.5403L26.6984 45.3345C28.651 43.3819 31.8169 43.3819 33.7695 45.3345L44.2175 55.7825L66.3057 33.6943Z" fill="#D8AAFF"/>
</svg>
