<svg width="128" height="128" viewBox="0 0 128 128" fill="none" xmlns="http://www.w3.org/2000/svg">
<g clip-path="url(#clip0_213_695)">
<circle cx="64" cy="53.5" r="48.5" fill="#372F37"/>
<path d="M90.2007 80.0793C67.4476 87.3107 54.5549 91.4082 26.318 61.8314C37.6636 97.4945 51.6239 108.074 90.6412 79.9393L90.2007 80.0793Z" fill="#64828F"/>
<path d="M98.3354 30.5263C92.9592 66.4006 78.309 72.0313 39.8597 66.742C39.8597 66.742 77.715 94.6711 98.3354 71.3457C118.956 48.0203 98.3354 30.5263 98.3354 30.5263Z" fill="#DAC475"/>
<path d="M80.1772 35.13C76.1762 59.99 36.1665 59.9899 35.551 39.4268C35.551 39.4268 28.4003 63.9798 55.8636 63.9798C83.3269 63.9798 80.1772 35.13 80.1772 35.13Z" fill="#537381"/>
<path d="M68.1743 21.3189C78.0228 35.13 62.6345 48.3273 49.0927 41.5752C49.0927 41.5752 68.1743 53.8517 75.2529 39.4268C82.3315 25.0019 68.1743 21.3189 68.1743 21.3189Z" fill="#98BBCA"/>
<path d="M53.7092 13.6461C86.8295 21.2619 90.3001 31.7634 80.1772 57.2277C80.1772 57.2277 105.414 30.5263 87.2558 17.0222C69.0976 3.518 53.7092 13.6461 53.7092 13.6461Z" fill="#7295A4"/>
<path d="M35.551 63.9798C29.8574 55.2661 27.2778 47.4209 31.2423 25.9226C17.8779 35.8372 17.3016 48.4466 35.551 63.9798Z" fill="#375866"/>
<path d="M55.8636 28.071C40.9333 32.6283 42.7731 38.0699 49.0927 48.6341C49.0927 48.6341 36.7821 47.0997 39.8597 35.13C42.9373 23.1604 55.8636 28.071 55.8636 28.071Z" fill="#627D88"/>
<path d="M58.9412 19.1705C43.3005 21.2374 39.3873 24.7896 35.551 32.6747C35.551 32.6747 31.5501 22.2397 39.8597 17.0222C48.1694 11.8046 58.9412 19.1705 58.9412 19.1705Z" fill="#507585"/>
<path d="M65.4043 35.13C63.8671 27.8359 60.7032 25.3 51.5548 23.1604C51.5548 23.1604 59.6899 18.2498 65.4043 23.1604C71.1187 28.071 65.4043 35.13 65.4043 35.13Z" fill="#42788F"/>
<path d="M60.7878 35.7438C57.4024 32.6747 53.7092 35.13 55.8636 39.4268C55.8636 39.4268 50.9393 38.292 50.9393 35.7438C50.9393 31.447 55.3875 30.8294 57.7101 31.447C62.3266 32.6747 60.7878 35.7438 60.7878 35.7438Z" fill="#6E96A7"/>
<path d="M115.975 124V112.34H111.902V109.908H123.006V112.34H118.924V124H115.975Z" fill="#372F37"/>
<path d="M98.0156 124V109.908H100.965V115.631H107.312V109.908H110.262V124H107.312V118.062H100.965V124H98.0156Z" fill="#372F37"/>
<path d="M89.8125 124.244C85.6035 124.244 83.0254 121.5 83.0254 116.91V116.9C83.0254 112.389 85.6133 109.664 89.7441 109.664C93.1328 109.664 95.4375 111.637 95.9062 114.283L95.9355 114.42H92.9766L92.9375 114.322C92.4688 112.955 91.3457 112.164 89.7539 112.164C87.4297 112.164 86.0332 113.883 86.0332 116.871V116.881C86.0332 119.938 87.5176 121.744 89.8613 121.744C91.7852 121.744 93.1035 120.602 93.1816 118.863L93.1914 118.658H89.9688V116.461H96.0625V118.082C96.0625 121.92 93.7383 124.244 89.8125 124.244Z" fill="#372F37"/>
<path d="M78.1719 124V109.908H81.1211V124H78.1719Z" fill="#372F37"/>
<path d="M67.3125 124V109.908H70.2617V121.568H76.4238V124H67.3125Z" fill="#372F37"/>
<path d="M53.0156 124V109.908H55.5938L61.9609 119.068H62.0195V109.908H64.959V124H62.4004L56.0137 114.771H55.9551V124H53.0156Z" fill="#372F37"/>
<path d="M44.3145 124.244C40.125 124.244 37.5176 121.441 37.5176 116.959V116.939C37.5176 112.457 40.1445 109.664 44.3145 109.664C48.4941 109.664 51.1113 112.467 51.1113 116.939V116.959C51.1113 121.441 48.5039 124.244 44.3145 124.244ZM44.3145 121.744C46.6582 121.744 48.1035 119.879 48.1035 116.959V116.939C48.1035 114 46.6289 112.164 44.3145 112.164C42.0098 112.164 40.5254 113.99 40.5254 116.939V116.959C40.5254 119.908 42 121.744 44.3145 121.744Z" fill="#372F37"/>
<path d="M29.2559 124.244C25.0664 124.244 22.459 121.441 22.459 116.959V116.939C22.459 112.457 25.0859 109.664 29.2559 109.664C33.4355 109.664 36.0527 112.467 36.0527 116.939V116.959C36.0527 121.441 33.4453 124.244 29.2559 124.244ZM29.2559 121.744C31.5996 121.744 33.0449 119.879 33.0449 116.959V116.939C33.0449 114 31.5703 112.164 29.2559 112.164C26.9512 112.164 25.4668 113.99 25.4668 116.939V116.959C25.4668 119.908 26.9414 121.744 29.2559 121.744Z" fill="#372F37"/>
<path d="M5.67188 124V109.908H9.08008L13.084 120.035H13.1426L17.1465 109.908H20.5547V124H17.9277V114.469H17.8398L14.041 124H12.1855L8.37695 114.469H8.29883V124H5.67188Z" fill="#372F37"/>
</g>
<defs>
<clipPath id="clip0_213_695">
<rect width="128" height="128" fill="white"/>
</clipPath>
</defs>
</svg>
